<?xml version="1.0" encoding="UTF-8"?>
<svg xmlns="http://www.w3.org/2000/svg" xmlns:xlink="http://www.w3.org/1999/xlink" width="30pt" height="30pt" viewBox="0 0 30 30" version="1.1">
<g id="surface1">
<path style=" stroke:none;fill-rule:nonzero;fill:rgb(100%,54.901961%,18.039216%);fill-opacity:1;" d="M 15 0 C 6.757812 0 0 6.757812 0 15 C 0 23.242188 6.757812 30 15 30 C 23.242188 30 30 23.242188 30 15 C 30 6.757812 23.242188 0 15 0 Z M 15 0 "/>
<path style=" stroke:none;fill-rule:nonzero;fill:rgb(88.627451%,41.960784%,10.588235%);fill-opacity:1;" d="M 30 15 C 30 23.242188 23.242188 30 15 30 L 15 0 C 23.242188 0 30 6.757812 30 15 Z M 30 15 "/>
<path style=" stroke:none;fill-rule:nonzero;fill:rgb(99.607843%,85.882353%,67.058824%);fill-opacity:1;" d="M 15 1.816406 C 7.722656 1.816406 1.816406 7.722656 1.816406 15 C 1.816406 22.277344 7.722656 28.183594 15 28.183594 C 22.277344 28.183594 28.183594 22.277344 28.183594 15 C 28.183594 7.722656 22.277344 1.816406 15 1.816406 Z M 15 1.816406 "/>
<path style=" stroke:none;fill-rule:nonzero;fill:rgb(99.607843%,76.862745%,47.058824%);fill-opacity:1;" d="M 28.183594 15 C 28.183594 22.277344 22.277344 28.183594 15 28.183594 L 15 1.816406 C 22.277344 1.816406 28.183594 7.722656 28.183594 15 Z M 28.183594 15 "/>
<path style=" stroke:none;fill-rule:nonzero;fill:rgb(99.607843%,65.882353%,19.607843%);fill-opacity:1;" d="M 24.597656 10.976562 C 24.757812 9.445312 24.226562 7.914062 23.121094 6.808594 C 22.03125 5.71875 20.484375 5.191406 18.972656 5.351562 C 18.007812 4.15625 16.546875 3.449219 15 3.449219 C 13.453125 3.449219 11.992188 4.15625 11.027344 5.351562 C 9.5 5.191406 7.96875 5.71875 6.878906 6.808594 C 5.773438 7.914062 5.242188 9.445312 5.402344 10.976562 C 4.207031 11.921875 3.503906 13.382812 3.503906 14.929688 C 3.503906 16.492188 4.207031 17.953125 5.402344 18.902344 C 5.242188 20.433594 5.773438 21.960938 6.878906 23.070312 C 7.96875 24.160156 9.5 24.683594 11.027344 24.527344 C 11.992188 25.722656 13.453125 26.425781 15 26.425781 C 16.546875 26.425781 18.007812 25.722656 18.972656 24.527344 C 20.503906 24.6875 22.03125 24.160156 23.121094 23.070312 C 24.226562 21.960938 24.757812 20.433594 24.597656 18.902344 C 25.792969 17.953125 26.496094 16.492188 26.496094 14.929688 C 26.496094 13.382812 25.792969 11.921875 24.597656 10.976562 Z M 24.597656 10.976562 "/>
<path style=" stroke:none;fill-rule:nonzero;fill:rgb(99.607843%,60%,13.72549%);fill-opacity:1;" d="M 26.496094 14.929688 C 26.496094 16.492188 25.792969 17.953125 24.597656 18.902344 C 24.753906 20.433594 24.226562 21.960938 23.121094 23.070312 C 22.03125 24.160156 20.5 24.6875 18.972656 24.527344 C 18.007812 25.722656 16.546875 26.425781 15 26.425781 L 15 3.453125 C 16.546875 3.453125 18.007812 4.15625 18.972656 5.351562 C 20.484375 5.191406 22.03125 5.71875 23.121094 6.808594 C 24.226562 7.914062 24.757812 9.445312 24.597656 10.976562 C 25.792969 11.921875 26.496094 13.382812 26.496094 14.929688 Z M 26.496094 14.929688 "/>
<path style=" stroke:none;fill-rule:nonzero;fill:rgb(99.607843%,76.862745%,47.058824%);fill-opacity:1;" d="M 25.328125 20.296875 L 16.300781 16.425781 L 16.992188 14.8125 L 26.019531 18.679688 Z M 25.328125 20.296875 "/>
<path style=" stroke:none;fill-rule:nonzero;fill:rgb(99.607843%,76.862745%,47.058824%);fill-opacity:1;" d="M 18.710938 26.523438 L 14.878906 16.941406 L 16.511719 16.289062 L 20.34375 25.871094 Z M 18.710938 26.523438 "/>
<path style=" stroke:none;fill-rule:nonzero;fill:rgb(99.607843%,85.882353%,67.058824%);fill-opacity:1;" d="M 11.164062 26.171875 L 9.550781 25.480469 L 13.5 16.269531 L 15.113281 16.960938 Z M 11.164062 26.171875 "/>
<path style=" stroke:none;fill-rule:nonzero;fill:rgb(99.607843%,85.882353%,67.058824%);fill-opacity:1;" d="M 4.695312 20.03125 L 4.042969 18.398438 L 13.027344 14.804688 L 13.679688 16.4375 Z M 4.695312 20.03125 "/>
<path style=" stroke:none;fill-rule:nonzero;fill:rgb(99.607843%,85.882353%,67.058824%);fill-opacity:1;" d="M 13.050781 15.085938 L 3.820312 11.128906 L 4.511719 9.511719 L 13.742188 13.46875 Z M 13.050781 15.085938 "/>
<path style=" stroke:none;fill-rule:nonzero;fill:rgb(99.607843%,85.882353%,67.058824%);fill-opacity:1;" d="M 13.53125 13.695312 L 9.636719 3.960938 L 11.269531 3.308594 L 15.164062 13.042969 Z M 13.53125 13.695312 "/>
<path style=" stroke:none;fill-rule:nonzero;fill:rgb(99.607843%,76.862745%,47.058824%);fill-opacity:1;" d="M 16.460938 13.714844 L 14.84375 13.023438 L 18.90625 3.53125 L 20.519531 4.226562 Z M 16.460938 13.714844 "/>
<path style=" stroke:none;fill-rule:nonzero;fill:rgb(99.607843%,76.862745%,47.058824%);fill-opacity:1;" d="M 16.949219 15.085938 L 16.257812 13.46875 L 25.371094 9.5625 L 26.0625 11.175781 Z M 16.949219 15.085938 "/>
<path style=" stroke:none;fill-rule:nonzero;fill:rgb(99.607843%,85.882353%,67.058824%);fill-opacity:1;" d="M 15 12.363281 C 13.539062 12.363281 12.363281 13.539062 12.363281 15 C 12.363281 16.460938 13.539062 17.636719 15 17.636719 C 16.460938 17.636719 17.636719 16.460938 17.636719 15 C 17.636719 13.539062 16.460938 12.363281 15 12.363281 Z M 15 12.363281 "/>
<path style=" stroke:none;fill-rule:nonzero;fill:rgb(99.607843%,76.862745%,47.058824%);fill-opacity:1;" d="M 17.636719 15 C 17.636719 16.460938 16.460938 17.636719 15 17.636719 L 15 12.363281 C 16.460938 12.363281 17.636719 13.539062 17.636719 15 Z M 17.636719 15 "/>
</g>
</svg>
